<svg xmlns="http://www.w3.org/2000/svg" version="1.1" xmlns:xlink="http://www.w3.org/1999/xlink" xmlns:svgjs="http://svgjs.dev/svgjs" width="100%" height="100%" viewBox="0 0 1000 600"><rect width="1000" height="600" x="0" y="0" fill="transparent"/><g><rect width="333.3333333333333" height="333.3333333333333" rx="13.333333333333334" ry="13.333333333333334" y="194.91566320349773" fill="#f5f5f5" transform="matrix(0.7238259858241319,0,0,0.7238259858241319,0,38.27731349201386)" x="172.6934356689453"/><path d="M350.7142730604404 436.58233064745116L328.00594041461034 436.58233064745116L328.00594041461034 286.58233518875727L350.7142730604404 286.58233518875727L350.7142730604404 436.58233064745116Z " fill="#001f3f" transform="matrix(0.7238259858241319,0,0,0.7238259858241319,0,38.27731349201386)"/><path d="M612.0684400449984 436.58233064745116L589.3601073991683 436.58233064745116L589.3601073991683 286.58233518875727L612.0684400449984 286.58233518875727L612.0684400449984 436.58233064745116ZM702.7231992051535 436.58233064745116L650.2232007946106 436.58233064745116L650.2232007946106 286.58233518875727L704.8660562831348 286.58233518875727Q728.4374841409295 286.58233518875727 745.877959803389 295.3620968277086Q763.348197369709 304.1418584666599 772.991054220625 320.98709605190214Q782.6339110715411 337.8025717332835 782.6339110715411 361.7906662451302L782.6339110715411 361.7906662451302Q782.6339110715411 384.94542744887303 772.9017685090424 401.76090313025435Q763.1398640426829 418.5763788116357 745.252959822311 427.59423568147383Q727.3660556019389 436.58233064745116 702.7231992051535 436.58233064745116L702.7231992051535 436.58233064745116ZM672.9315334404407 306.731144102554L672.9315334404407 416.4335217336544L704.0029610711703 416.4335217336544Q721.7708176760988 416.4335217336544 734.0922458744916 409.9156647881278Q746.4136740728842 403.3680459387404 752.8422453068282 391.2549510673736Q759.2708165407722 379.14185619600687 759.2708165407722 361.7906662451302L759.2708165407722 361.7906662451302Q759.2708165407722 343.5763810822888 752.9612929222716 331.25495288389607Q746.651769303771 318.93352468550336 734.4196268169609 312.83233439402875Q722.2172462340117 306.731144102554 704.0029610711703 306.731144102554L704.0029610711703 306.731144102554L672.9315334404407 306.731144102554ZM925.1339067573002 436.58233064745116L813.2886720482187 436.58233064745116L813.2886720482187 286.58233518875727L923.6458115642578 286.58233518875727L923.6458115642578 306.731144102554L835.9970046940485 306.731144102554L835.9970046940485 349.7966189892069L915.0743832523323 349.7966189892069L915.0743832523323 369.94542790300363L835.9970046940485 369.94542790300363L835.9970046940485 416.4335217336544L925.1339067573002 416.4335217336544L925.1339067573002 436.58233064745116ZM960.0743818899404 436.58233064745116L936.5029540321458 436.58233064745116L995.8481903306846 286.58233518875727L1022.8422371324772 286.58233518875727L1082.6339019889288 436.58233064745116L1057.5743789380913 436.58233064745116L1009.5684280105373 310.15376304655206L1008.9136661255985 310.15376304655206L960.0743818899404 436.58233064745116ZM1049.0029506261662 403.3680459387404L969.2708101829436 403.3680459387404L969.2708101829436 383.2192370249436L1049.0029506261662 383.2192370249436L1049.0029506261662 403.3680459387404ZM1208.854136262802 436.58233064745116L1103.6458061146905 436.58233064745116L1103.6458061146905 286.58233518875727L1126.3541387605205 286.58233518875727L1126.3541387605205 416.4335217336544L1208.854136262802 416.4335217336544L1208.854136262802 436.58233064745116Z " fill="#001f3f" transform="matrix(0.7238259858241319,0,0,0.7238259858241319,0,38.27731349201386)"/></g></svg>